<svg id="Layer_1" data-name="Layer 1" xmlns="http://www.w3.org/2000/svg" viewBox="0 0 1200 284.8"><defs><style>.cls-1{fill:red;}.cls-2{fill:#fff;}</style></defs><title>YouTube-Logo.wine</title><g id="g7433"><path id="path7429" class="cls-1" d="M379.3,52.39a46.89,46.89,0,0,0-33-33c-29.29-8-146.42-8-146.42-8s-117.13,0-146.41,7.7a47.84,47.84,0,0,0-33,33.29c-7.71,29.29-7.71,90-7.71,90s0,61,7.71,90a46.87,46.87,0,0,0,33,33c29.59,8,146.41,8,146.41,8s117.13,0,146.42-7.7a46.9,46.9,0,0,0,33-33c7.71-29.28,7.71-90,7.71-90s.3-61-7.71-90.32Z"/><path id="polygon7431" class="cls-2" d="M162.61,86.3V198.5L260,142.4Z"/></g><g id="g7451"><g id="g7449"><path id="path7435" class="cls-2" d="M556.23,250c-7.4-4.94-12.64-12.64-15.72-23.43-3.08-10.48-4.62-24.66-4.62-41.92V160.89c0-17.57,1.85-31.74,5.24-42.53,3.69-10.79,9.24-18.5,16.64-23.43,7.71-4.93,17.57-7.4,29.9-7.4,12,0,21.89,2.47,29.28,7.4s12.64,12.95,16,23.43,5.24,24.66,5.24,42.53v23.74c0,17.57-1.54,31.44-4.93,42.23-3.39,10.48-8.63,18.49-16,23.42s-17.57,7.4-30.21,7.4c-12.94-.31-23.42-2.77-30.82-7.7Zm41.61-25.9c2.16-5.24,3.08-14.18,3.08-26.2V146.72c0-11.72-.92-20.35-3.08-25.9s-5.55-8-10.79-8c-4.93,0-8.63,2.77-10.48,8-2.15,5.55-3.08,14.18-3.08,25.9v51.16c0,12,.93,21,3.08,26.2,1.85,5.24,5.55,8,10.79,8C592.29,232.1,595.68,229.63,597.84,224.08Z"/><path id="path7437" class="cls-2" d="M1125.24,184.94v8.32a221.93,221.93,0,0,0,.93,23.73c.61,5.24,1.85,9.25,4,11.41,1.84,2.47,4.93,3.7,9.24,3.7,5.55,0,9.25-2.16,11.41-6.47s3.08-11.41,3.39-21.58L1186,205.9a31.57,31.57,0,0,1,.31,5.85c0,15.11-4,26.51-12.33,33.91s-20,11.1-35.14,11.1c-18.19,0-30.83-5.86-38.23-17.26s-11.09-29-11.09-53V157.81c0-24.66,3.7-42.54,11.4-53.94s20.65-17,38.84-17c12.64,0,22.5,2.46,29.28,7.09s11.41,12,14.18,21.57c2.78,9.87,4,23.43,4,40.69v28h-62Zm4.63-69c-1.85,2.47-3.09,6.17-3.7,11.41a224.62,224.62,0,0,0-.93,24v11.71h27.13V151.34a232.61,232.61,0,0,0-.93-24c-.61-5.55-2.15-9.25-4-11.41s-4.94-3.39-8.63-3.39c-4.32-.31-7.09.93-8.94,3.39Z"/><path id="path7439" class="cls-2" d="M466.22,181.85l-41.92-152H461l14.8,68.74q5.55,25.43,8.32,43.46H485c1.23-8.63,4-22.81,8.32-43.15l15.41-69h36.68l-42.54,152V254.6H466.53V181.85Z"/><path id="path7441" class="cls-2" d="M757.51,90.62V254.91h-29l-3.09-20h-.92c-7.71,15.11-19.73,22.81-35.45,22.81-10.79,0-18.8-3.7-24-10.79s-7.71-18.18-7.71-33.59V90.62h37V211.14c0,7.4.93,12.64,2.47,15.72s4.31,4.62,8,4.62a15.8,15.8,0,0,0,9.25-3.08,15,15,0,0,0,6.47-7.4V90.62Z"/><path id="path7443" class="cls-2" d="M947.08,90.62V254.91h-29l-3.09-20h-.92c-7.71,15.11-19.73,22.81-35.45,22.81-10.79,0-18.8-3.7-24-10.79s-7.71-18.18-7.71-33.59V90.62h37V211.14c0,7.4.93,12.64,2.47,15.72s4.31,4.62,8,4.62a15.8,15.8,0,0,0,9.25-3.08,15,15,0,0,0,6.47-7.4V90.62Z"/><path id="path7445" class="cls-2" d="M858,59.79H821.32V254.6H785.25V59.79H748.57V29.89H858Z"/><path id="path7447" class="cls-2" d="M1069.45,116.82c-2.16-10.48-5.85-17.88-10.79-22.51s-12-7.09-20.65-7.09a33.22,33.22,0,0,0-19.11,5.86,37.64,37.64,0,0,0-13.56,15.11H1005V21.57H969.27v233h30.52l3.7-15.41h.92a31.5,31.5,0,0,0,13,13.25,40.07,40.07,0,0,0,19.11,4.93c12.64,0,21.58-5.85,27.43-17.26s8.94-29.59,8.94-53.94V160.28c-.31-18.8-1.23-33.29-3.39-43.46Zm-33.9,66.88a212,212,0,0,1-1.55,28.05c-.92,6.79-2.77,11.72-4.93,14.49a12,12,0,0,1-9.25,4.32,15.29,15.29,0,0,1-8.32-2.16,17.84,17.84,0,0,1-6.16-6.47V128.84a25.17,25.17,0,0,1,6.47-11.1c3.08-2.77,6.47-4.31,9.86-4.31a10,10,0,0,1,8.64,4.31c2.15,3.08,3.39,8,4.31,14.8.93,7.09,1.23,17,1.23,29.59V183.7Z"/></g></g></svg>